{"title":"Bulletproof Gangster 2011 DVD9rip English Klam","uid":6445808,"size":1533175562,"categoryP":"video","categoryS":"movies","magnet":"?xt=urn:btih:5b96975bd4706d03df9c17b981c41d3e58d5dbe6&amp;dn=Bulletproof+Gangster+2011+DVD9rip+English+Klam&amp;tr=udp%3A%2F%2Ftracker.openbittorrent.com%3A80&amp;tr=udp%3A%2F%2Fopen.demonii.com%3A1337&amp;tr=udp%3A%2F%2Ftracker.coppersurfer.tk%3A6969&amp;tr=udp%3A%2F%2Fexodus.desync.com%3A6969","seeders":0,"leechers":1,"uploader":"Klambake","files":-1,"time":1307282374,"description":"(Kill the Irishman) With: Ray Stevenson, Val Kilmer and Christopher Walken\n\nDit waargebeurde verhaal onthult de details van de opkomst en ondergang van de beruchte vakbondsvertegenwoordiger Danny Greene (Ray Stevenson), die bekendheid verwierf in het midden van de jaren '70 voor zijn gedurfde bereidheid om de Italiaanse maffia te trotseren. Opgegroeid in de straten van Cleveland, geraakt de stoere reputatie van Greene uiteindelijk in contact met de lokale maffia. Het duurt niet lang alvorens de lokale maffia is uitgegroeid tot een grootse handhaver binnen de regio.\n\nThe true story of Danny Greene, a tough Irish thug working for mobsters in Cleveland during the 1970's. \n\nGeneral:\n\nComplete name                    : Kill the Irishman\\Kill the Irishman.avi\nFormat                           : AVI\nFormat/Info                      : Audio Video Interleave\nFile size                        : 1.43 GiB\nDuration                         : 1h 42mn\nOverall bit rate                 : 1 998 Kbps\n\nVideo:\n\nFormat                           : MPEG-4 Visual\nFormat profile                   : Simple@L3\nFormat settings, BVOP            : No\nFormat settings, QPel            : No\nFormat settings, GMC             : No warppoints\nFormat settings, Matrix          : Default (H.263)\nCodec ID                         : XVID\nCodec ID/Hint                    : XviD\nDuration                         : 1h 42mn\nBit rate                         : 1 539 Kbps\nWidth                            : 652 pixels\nHeight                           : 352 pixels\nDisplay aspect ratio             : 1.852\nFrame rate                       : 25.000 fps\nColor space                      : YUV\nChroma subsampling               : 4:2:0\nBit depth                        : 8 bits\nScan type                        : Progressive\nBits/(Pixel*Frame)               : 0.268\nStream size                      : 1.10 GiB (77%)\nWriting library                  : XviD 1.1.2 (UTC 2006-11-01)\n\nAudio:\n\nFormat                           : AC-3\nFormat/Info                      : Audio Coding 3\nMode extension                   : CM (complete main)\nCodec ID                         : 2000\nDuration                         : 1h 42mn\nBit rate mode                    : Constant\nBit rate                         : 448 Kbps\nChannel(s)                       : 6 channels\nChannel positions                : Front: L C R, Side: L R, LFE\nSampling rate                    : 48.0 KHz\nBit depth                        : 16 bits\nStream size                      : 328 MiB (22%)\nAlignment                        : Aligned on interleaves\nInterleave, duration             : 32 ms (0.80 video frame)\nInterleave, preload duration     : 160 ms\n\n","torrent":{"xt":"urn:btih:5b96975bd4706d03df9c17b981c41d3e58d5dbe6","amp;dn":"Bulletproof+Gangster+2011+DVD9rip+English+Klam","amp;tr":["udp%3A%2F%2Ftracker.openbittorrent.com%3A80","udp%3A%2F%2Fopen.demonii.com%3A1337","udp%3A%2F%2Ftracker.coppersurfer.tk%3A6969","udp%3A%2F%2Fexodus.desync.com%3A6969"],"infoHash":"5b96975bd4706d03df9c17b981c41d3e58d5dbe6","infoHashBuffer":{"type":"Buffer","data":[91,150,151,91,212,112,109,3,223,156,23,185,129,196,29,62,88,213,219,230]},"announce":[],"urlList":[]}}